<svg width="362" height="315" viewBox="0 0 362 315" fill="none" xmlns="http://www.w3.org/2000/svg">
<g clip-path="url(#clip0_2_109)">
<path d="M362 153.036C362 223.117 300.452 282.193 216.469 300.329C202.829 303.267 188.973 305.081 175.038 305.752C174.361 305.786 173.683 305.82 173 305.844C169.374 305.995 165.72 306.071 162.038 306.072C155.638 306.072 149.313 305.844 143.064 305.388C139.597 305.141 136.16 304.826 132.751 304.442C99.6001 300.717 69.0927 290.769 43.3252 276.193C40.1055 274.374 36.9616 272.482 33.8936 270.517C28.2756 266.935 22.8517 263.055 17.6449 258.895C-16.7746 231.412 11.9221 172.749 29.8604 135.817C78.2773 36.1369 51.6045 0 162.038 0C272.472 0 362 68.5146 362 153.036Z" fill="#F2F2F2"/>
<path d="M282.857 63.0904C248.533 62.4738 248.539 11.3711 282.858 10.7595C317.181 11.3761 317.176 62.4788 282.857 63.0904Z" fill="white"/>
<path d="M217.946 139.245C183.622 138.628 183.628 87.5254 217.947 86.9138C252.27 87.5304 252.264 138.633 217.946 139.245Z" fill="white"/>
<path d="M285.656 216.575C251.332 215.958 251.337 164.856 285.657 164.244C319.98 164.861 319.974 215.963 285.656 216.575Z" fill="white"/>
<path d="M282.857 63.0904C248.533 62.4738 248.539 11.3711 282.858 10.7595C317.181 11.3761 317.176 62.4788 282.857 63.0904ZM282.857 12.3453C250.614 12.9246 250.619 60.93 282.858 61.5046C315.101 60.9252 315.096 12.9199 282.857 12.3453Z" fill="#E6E6E6"/>
<path d="M132.63 304.079C132.553 303.832 132.499 303.579 132.47 303.322L122.501 246.376C122.486 246.229 122.464 246.084 122.434 245.939C122.223 244.901 121.697 243.954 120.928 243.226C120.159 242.499 119.185 242.027 118.139 241.875L61.2926 242.122C60.2171 241.96 59.1182 242.148 58.1564 242.656C57.1947 243.165 56.4207 243.969 55.9474 244.95C55.0228 246.88 54.1174 248.838 53.2313 250.824C49.6435 258.823 46.3415 267.279 43.3252 276.193C69.0928 290.769 99.6001 300.717 132.751 304.442L132.63 304.079Z" fill="#2F2E41"/>
<path d="M188.122 151.692C187.982 152.308 187.891 152.933 187.849 153.563L138.921 181.841L127.029 174.983L114.351 191.611L134.226 205.803C135.832 206.949 137.766 207.543 139.737 207.495C141.708 207.447 143.61 206.759 145.158 205.536L195.611 165.66C197.888 166.505 200.368 166.634 202.72 166.033C205.073 165.431 207.186 164.126 208.78 162.291C210.374 160.456 211.373 158.179 211.643 155.761C211.914 153.344 211.443 150.902 210.294 148.759C209.145 146.616 207.372 144.874 205.211 143.766C203.05 142.657 200.604 142.234 198.197 142.552C195.79 142.871 193.536 143.916 191.737 145.548C189.937 147.181 188.676 149.324 188.122 151.692V151.692Z" fill="#FFB8B8"/>
<path d="M138.251 179.016C138.103 178.293 137.801 177.61 137.365 177.014C136.93 176.418 136.372 175.923 135.729 175.562L113.278 162.985C110.295 160.679 106.52 159.652 102.782 160.129C99.0444 160.607 95.648 162.549 93.3377 165.532C91.0274 168.514 89.9917 172.292 90.4577 176.038C90.9237 179.785 92.8534 183.193 95.8237 185.516L113.723 204.137C114.234 204.669 114.853 205.084 115.539 205.354C116.224 205.625 116.96 205.744 117.695 205.704C118.431 205.664 119.149 205.465 119.802 205.122C120.454 204.779 121.024 204.299 121.475 203.715L124.961 199.185L126.152 197.642L137.288 183.182C137.694 182.655 137.992 182.051 138.164 181.407C138.382 180.628 138.412 179.809 138.251 179.016Z" fill="#479FFF"/>
<path d="M105.745 140.664C116.669 129.719 116.669 111.974 105.745 101.03C94.8199 90.0848 77.1075 90.0848 66.1828 101.03C55.258 111.974 55.258 129.719 66.1828 140.664C77.1075 151.609 94.8199 151.609 105.745 140.664Z" fill="#FFB8B8"/>
<path d="M121.335 226.925C122.458 225.242 129.599 213.882 126.897 200.567C126.699 199.58 126.45 198.604 126.152 197.642C124.879 193.634 122.845 189.91 120.163 186.675C120.197 185.782 120.187 184.904 120.134 184.031V184.027C119.739 177.96 117.17 172.241 112.9 167.921C108.629 163.602 102.945 160.974 96.8937 160.521L65.6067 158.139C61.5796 157.81 57.533 158.466 53.8152 160.051C50.0975 161.637 46.8199 164.103 44.2645 167.239C43.676 167.953 43.1249 168.698 42.6134 169.47C42.6128 169.47 42.6122 169.47 42.6116 169.47C42.611 169.471 42.6105 169.471 42.61 169.471C42.6096 169.472 42.6092 169.472 42.609 169.473C42.6088 169.473 42.6087 169.474 42.6087 169.475C40.636 172.458 39.327 175.831 38.7706 179.365C38.2142 182.9 38.4234 186.513 39.3841 189.959L39.6505 191.133L42.9863 205.786L48.5639 230.306L53.2313 250.824L53.7252 252.987C53.9855 254.12 54.6211 255.132 55.5284 255.857C56.4357 256.581 57.5612 256.977 58.7217 256.979C59.0007 256.981 59.2794 256.958 59.5546 256.911L120.095 246.968C120.949 246.831 121.755 246.477 122.434 245.939C122.841 245.614 123.199 245.23 123.494 244.8C123.888 244.228 124.162 243.581 124.296 242.9C124.431 242.218 124.425 241.516 124.278 240.837L121.335 226.925Z" fill="#479FFF"/>
<path d="M2.1891 309.686C1.16225 308.219 0.469033 306.544 0.15828 304.779C-0.152473 303.014 -0.0732045 301.203 0.390501 299.472C0.854207 297.741 1.69107 296.133 2.84215 294.761C3.99323 293.39 5.43051 292.287 7.05277 291.532L41.5223 185.359L61.4981 194.855L23.7829 298.235C24.8684 301.049 24.8856 304.165 23.8314 306.991C22.7772 309.817 20.7248 312.158 18.0631 313.569C15.4013 314.981 12.3153 315.365 9.38959 314.65C6.46392 313.934 3.90193 312.168 2.1891 309.686Z" fill="#FFB8B8"/>
<path d="M61.2636 160.278C57.5708 159.165 53.5944 159.494 50.1342 161.2C46.6741 162.905 43.9869 165.86 42.6134 169.47C42.6128 169.47 42.6121 169.47 42.6116 169.47C42.611 169.47 42.6104 169.471 42.61 169.471C42.6096 169.472 42.6092 169.472 42.609 169.473C42.6088 169.473 42.6086 169.474 42.6087 169.475C42.4827 169.8 42.3666 170.139 42.2649 170.479L39.3452 176.683L30.5238 195.43C30.1866 196.145 30.0072 196.923 29.9979 197.713C29.9887 198.504 30.1497 199.286 30.47 200.008C30.7904 200.73 31.2625 201.375 31.8542 201.897C32.4459 202.42 33.1431 202.808 33.8984 203.036L35.6173 203.555L42.9862 205.786L56.0637 209.744L60.4212 211.064C61.1762 211.292 61.9715 211.355 62.7529 211.248C63.5343 211.14 64.2834 210.866 64.9492 210.442C65.615 210.019 66.1819 209.456 66.6111 208.793C67.0404 208.131 67.322 207.383 67.4367 206.601L71.4651 179.224C72.6096 175.357 72.1789 171.192 70.2672 167.642C68.3555 164.092 65.1183 161.444 61.2636 160.278Z" fill="#479FFF"/>
<path d="M111.651 110.655C101.683 119.391 86.3801 121.42 74.4872 115.582C79.8296 121.931 89.9754 153.274 89.9754 153.274C89.9754 153.274 61.3275 150.258 57.28 149.391C33.3739 144.27 42.0636 82.2433 67.5368 82.5565C71.8513 82.6095 75.623 83.1322 78.4946 86.3584C80.4006 81.0059 86.4614 77.8529 92.1192 78.2611C97.7771 78.6692 102.894 82.0739 106.533 86.4327C109.438 89.9616 111.534 94.0858 112.675 98.5146C113.816 102.943 113.973 107.569 113.135 112.065L111.651 110.655Z" fill="#2F2E41"/>
<path d="M217.946 139.245C183.622 138.628 183.628 87.5254 217.947 86.9138C252.27 87.5304 252.264 138.633 217.946 139.245ZM217.946 88.4996C185.702 89.0789 185.708 137.084 217.947 137.659C250.189 137.08 250.184 89.0743 217.946 88.4996Z" fill="#E6E6E6"/>
<path d="M285.656 216.575C251.332 215.958 251.337 164.856 285.657 164.244C319.98 164.861 319.974 215.963 285.656 216.575ZM285.656 165.83C253.412 166.409 253.417 214.415 285.657 214.989C317.899 214.41 317.894 166.405 285.656 165.83Z" fill="#E6E6E6"/>
<path d="M288.436 23.5119C281.997 23.6973 269.475 21.3915 269.469 31.3369C269.654 37.7873 267.352 50.3314 277.279 50.3378C283.718 50.1528 296.239 52.4585 296.245 42.5132C296.061 36.0628 298.362 23.5187 288.436 23.5119Z" fill="#3F3D56"/>
<path d="M290.109 31.3365C287.942 31.3637 287.95 27.9536 290.116 27.9904C292.283 27.9635 292.276 31.373 290.109 31.3365Z" fill="white"/>
<path d="M282.857 32.4539C288.648 32.3686 288.648 41.4822 282.857 41.3963C277.067 41.4805 277.067 32.3688 282.857 32.4539ZM282.857 30.2185C274.173 30.0915 274.171 43.7598 282.858 43.6316C291.543 43.7587 291.542 30.0904 282.857 30.2185V30.2185Z" fill="white"/>
<path d="M226.612 288.552C224.341 293.276 220.642 297.099 216.469 300.329C202.829 303.267 188.973 305.081 175.038 305.752C174.361 305.786 173.683 305.82 173 305.844C169.374 305.995 165.72 306.071 162.038 306.072C155.638 306.072 149.313 305.844 143.064 305.388C142.826 303.948 142.793 302.482 142.967 301.032C143.659 295.362 147.954 290.153 153.527 288.95C159.1 287.747 165.452 291.079 167.142 296.531C168.076 286.015 169.146 275.062 174.728 266.108C179.778 258.003 188.527 252.202 198.012 251.164C203.586 250.582 209.21 251.614 214.217 254.137C214.677 254.37 215.132 254.612 215.583 254.865C218.588 256.571 221.239 258.838 223.392 261.544C229.309 269.043 230.757 279.947 226.612 288.552Z" fill="white"/>
<path d="M215.583 254.864C215.594 254.992 215.573 255.12 215.52 255.236C215.468 255.353 215.386 255.454 215.283 255.529C198.478 269.235 184.762 286.352 175.038 305.752C174.361 305.786 173.683 305.82 173 305.844C173.862 304.093 174.756 302.36 175.682 300.644C180.494 291.762 186.155 283.369 192.585 275.581C199.013 267.789 206.191 260.649 214.014 254.263C214.076 254.212 214.144 254.17 214.217 254.137C214.354 254.078 214.501 254.051 214.65 254.058C214.798 254.064 214.943 254.103 215.074 254.173C215.205 254.243 215.318 254.341 215.406 254.461C215.495 254.581 215.555 254.719 215.583 254.864Z" fill="#F2F2F2"/>
<path d="M299.836 183.808C299.836 183.808 297.619 186.296 297.193 186.457C296.021 199.228 288.061 202.129 281.67 202.129C277.076 202.129 273.289 200.63 273.415 200.218C280.232 200.378 280.813 197.574 280.813 197.574C276.853 196.987 276.059 194.397 276.059 194.397C276.414 194.584 276.826 194.634 277.215 194.537C277.605 194.439 277.944 194.201 278.17 193.868C273.894 192.753 274.476 188.571 274.476 188.571C275.237 189.123 276.127 189.471 277.061 189.58C276.586 188.998 272.587 184.196 274.994 181.708C275.134 182.086 279.298 187.766 286.255 187.354C286.09 186.543 286.107 185.706 286.303 184.902C286.499 184.098 286.871 183.348 287.391 182.705C287.912 182.062 288.568 181.543 289.312 181.184C290.057 180.826 290.871 180.637 291.697 180.631C295.396 180.631 296.191 182.751 296.191 182.751L298.834 181.16C298.781 181.16 298.514 183.808 297.193 184.337L299.836 183.808Z" fill="#3F3D56"/>
<path fill-rule="evenodd" clip-rule="evenodd" d="M232.337 113.164C232.337 116.626 231.105 119.975 228.861 122.607C226.617 125.24 223.51 126.985 220.097 127.527V117.37H223.476L224.12 113.164H220.097C219.961 109.662 219.826 107.698 224.29 108.168V104.593C217.603 103.119 214.814 106.514 215.565 113.164H211.881V117.37H215.565V127.522C198.222 124.849 200.261 98.564 217.826 98.6318C219.731 98.6315 221.618 99.0071 223.378 99.7372C225.139 100.467 226.738 101.538 228.086 102.887C229.433 104.237 230.502 105.839 231.232 107.602C231.961 109.365 232.336 111.255 232.337 113.164Z" fill="#3F3D56"/>
</g>
<defs>
<clipPath id="clip0_2_109">
<rect width="362" height="315" fill="white"/>
</clipPath>
</defs>
</svg>
