<svg width="592" height="479" viewBox="0 0 592 479" fill="none" xmlns="http://www.w3.org/2000/svg">
<g clip-path="url(#clip0_2_87)">
<path d="M568.548 0.000757469H390.843C382.268 0.000336586 373.947 2.92388 367.249 8.29079C360.552 13.6577 355.876 21.1486 353.99 29.532L264.2 428.661C263.221 433.015 263.203 437.53 264.15 441.891C265.096 446.252 266.982 450.353 269.677 453.906C272.372 457.459 275.809 460.378 279.749 462.458C283.688 464.539 288.034 465.731 292.482 465.951L475.165 474.971C484.947 475.454 494.57 472.353 502.239 466.248C509.908 460.143 515.098 451.45 516.841 441.792L567.779 159.604L571.568 160.689L581.317 107.204L577.417 106.227L591.634 27.4574C592.244 24.0835 592.103 20.6164 591.222 17.3033C590.34 13.9902 588.741 10.9128 586.536 8.29035C584.332 5.66793 581.578 3.56514 578.47 2.13188C575.362 0.698617 571.976 -0.0298067 568.555 -0.00146171L568.548 0.000757469Z" fill="#3F3D56"/>
<path d="M414.235 8.6048H393.494C387.537 8.60486 381.759 10.6466 377.119 14.391C372.479 18.1355 369.257 23.3574 367.987 29.1901L281.799 425.063C281.302 427.342 281.303 429.702 281.8 431.981C282.297 434.26 283.279 436.405 284.679 438.269C286.08 440.133 287.865 441.671 289.913 442.78C291.961 443.889 294.224 444.542 296.547 444.694L478.636 456.655C483.773 456.992 488.854 455.422 492.91 452.245C496.966 449.067 499.712 444.504 500.625 439.427L574.169 30.2537C574.645 27.6053 574.535 24.8846 573.848 22.2835C573.16 19.6824 571.911 17.2642 570.188 15.1997C568.466 13.1351 566.313 11.4745 563.88 10.335C561.448 9.19548 558.796 8.60486 556.11 8.6048H536.433C534.529 8.60474 532.677 9.2339 531.165 10.3949C529.654 11.5559 528.566 13.1839 528.071 15.0269C527.633 16.6546 526.673 18.0923 525.338 19.1174C524.002 20.1425 522.367 20.6977 520.685 20.6971H427.268C423.975 20.697 420.804 19.4515 418.388 17.2097C415.971 14.9679 414.488 11.8949 414.235 8.6048Z" fill="white"/>
<path d="M514.894 285.353C515.248 285.366 515.595 285.25 515.871 285.027C516.147 284.805 516.334 284.49 516.398 284.141L556.666 61.4228C556.704 61.2111 556.696 60.9936 556.643 60.7852C556.59 60.5767 556.493 60.3822 556.358 60.2149C556.224 60.049 556.055 59.9146 555.864 59.8213C555.672 59.7281 555.463 59.6782 555.25 59.6754L372.047 57.5068H372.03C371.697 57.5096 371.376 57.6255 371.117 57.8356C370.859 58.0456 370.68 58.3373 370.608 58.6629L323.138 274.152C323.091 274.363 323.091 274.58 323.136 274.791C323.181 275.001 323.272 275.2 323.4 275.372C323.528 275.543 323.692 275.684 323.88 275.784C324.068 275.884 324.276 275.942 324.488 275.953L514.894 285.353Z" fill="#E6E6E6"/>
<path d="M355.911 299.753C355.745 299.754 355.583 299.81 355.452 299.914C355.322 300.018 355.23 300.163 355.193 300.326L353.477 307.694C353.453 307.798 353.451 307.907 353.473 308.011C353.494 308.116 353.538 308.215 353.601 308.301C353.664 308.387 353.745 308.459 353.838 308.51C353.932 308.562 354.035 308.593 354.142 308.601L451.061 315.504C451.241 315.516 451.419 315.461 451.562 315.352C451.705 315.242 451.803 315.084 451.839 314.907L453.489 306.381C453.509 306.278 453.506 306.171 453.482 306.069C453.457 305.966 453.411 305.87 453.347 305.787C453.283 305.704 453.201 305.635 453.108 305.586C453.015 305.537 452.913 305.508 452.808 305.502L355.956 299.755L355.911 299.753Z" fill="#E6E6E6"/>
<path d="M473.663 342.875C473.838 342.889 474.012 342.84 474.154 342.738C474.296 342.635 474.397 342.485 474.439 342.314L476.539 333.771C476.565 333.666 476.568 333.557 476.547 333.451C476.526 333.345 476.483 333.245 476.42 333.158C476.356 333.071 476.275 332.998 476.181 332.946C476.086 332.894 475.982 332.863 475.875 332.855L352.103 324.18C351.935 324.167 351.767 324.212 351.629 324.308C351.49 324.404 351.389 324.545 351.343 324.708L349.16 332.091C349.129 332.196 349.122 332.307 349.139 332.416C349.156 332.525 349.197 332.628 349.259 332.719C349.322 332.81 349.403 332.885 349.498 332.941C349.593 332.996 349.699 333.029 349.809 333.038L473.663 342.875Z" fill="#E6E6E6"/>
<path d="M467.016 370.26C467.191 370.274 467.365 370.225 467.507 370.122C467.649 370.02 467.75 369.869 467.792 369.699L469.893 361.155C469.918 361.051 469.921 360.942 469.9 360.836C469.88 360.73 469.836 360.63 469.773 360.543C469.709 360.455 469.628 360.383 469.534 360.331C469.44 360.279 469.335 360.248 469.228 360.24L345.456 351.565C345.288 351.551 345.12 351.597 344.982 351.693C344.843 351.789 344.742 351.93 344.696 352.093L342.513 359.475C342.482 359.581 342.475 359.692 342.492 359.801C342.509 359.909 342.55 360.013 342.613 360.104C342.675 360.194 342.756 360.27 342.851 360.325C342.946 360.381 343.052 360.414 343.162 360.423L467.016 370.26Z" fill="#E6E6E6"/>
<path d="M252.419 466.668C252.419 472.862 195.842 473.522 126.209 477.883C56.6384 482.24 0 472.862 0 466.668C0 460.474 56.9028 448.011 126.209 455.453C195.842 462.93 252.419 460.474 252.419 466.668Z" fill="#E6E6E6"/>
<path d="M410.011 417.075C410.187 417.093 410.364 417.046 410.509 416.944C410.653 416.841 410.756 416.689 410.797 416.517L415.238 398.716C415.264 398.612 415.267 398.503 415.247 398.398C415.227 398.292 415.185 398.192 415.122 398.105C415.06 398.018 414.98 397.945 414.887 397.892C414.794 397.839 414.69 397.807 414.584 397.798L338.575 391.391C338.398 391.379 338.222 391.43 338.078 391.536C337.935 391.641 337.834 391.795 337.792 391.968L334.004 409.052C333.982 409.155 333.981 409.261 334.002 409.364C334.024 409.467 334.067 409.564 334.128 409.649C334.19 409.734 334.269 409.805 334.36 409.856C334.451 409.908 334.552 409.94 334.657 409.95L410.011 417.075Z" fill="#479FFF"/>
<path d="M103.108 344.537C104.065 343.879 104.866 343.02 105.456 342.018C106.046 341.017 106.409 339.898 106.52 338.741C106.632 337.584 106.489 336.416 106.101 335.32C105.713 334.224 105.09 333.227 104.276 332.398L107.354 263.553L91.6853 265.315L92.5959 332.656C91.2966 334.118 90.5777 336.007 90.5756 337.964C90.5735 339.922 91.2884 341.812 92.5846 343.277C93.8809 344.742 95.6684 345.679 97.6081 345.91C99.5479 346.142 101.505 345.652 103.108 344.534L103.108 344.537Z" fill="#A0616A"/>
<path d="M131.692 461.077L140.61 462.648L149.423 428.925L137.739 426.606L131.692 461.077Z" fill="#A0616A"/>
<path d="M156.355 473.976L128.328 469.038L130.231 458.187L147.43 461.217C150.302 461.723 152.855 463.352 154.529 465.745C156.203 468.137 156.86 471.099 156.355 473.977L156.355 473.976Z" fill="#2F2E41"/>
<path d="M107.215 465.55H116.269L120.577 430.551H107.213L107.215 465.55Z" fill="#A0616A"/>
<path d="M133.728 473.977L105.271 473.979L105.271 462.96L122.733 462.959C125.649 462.959 128.446 464.12 130.508 466.186C132.57 468.252 133.728 471.055 133.728 473.977Z" fill="#2F2E41"/>
<path d="M144.991 453.005C144.849 453.005 144.708 452.997 144.568 452.98L133.911 452.101C133.426 452.044 132.957 451.889 132.534 451.645C132.11 451.4 131.741 451.072 131.448 450.681C131.155 450.289 130.944 449.842 130.829 449.366C130.714 448.89 130.696 448.396 130.777 447.913L141.357 395.6L134.71 360.463C134.656 360.177 134.501 359.921 134.273 359.741C134.045 359.561 133.76 359.47 133.47 359.485C133.18 359.499 132.906 359.618 132.697 359.82C132.488 360.021 132.358 360.292 132.333 360.581L122.539 449.861C122.447 450.801 121.995 451.67 121.277 452.282C120.559 452.895 119.632 453.204 118.691 453.145L108.65 452.77C107.771 452.708 106.944 452.325 106.327 451.693C105.71 451.062 105.345 450.226 105.3 449.343L106.102 341.455L158.156 334.935L161.793 391.215L161.778 391.275L148.491 450.245C148.299 451.031 147.851 451.73 147.216 452.231C146.582 452.731 145.798 453.004 144.991 453.005Z" fill="#2F2E41"/>
<path d="M123.268 218.943C133.287 218.943 141.408 210.804 141.408 200.764C141.408 190.725 133.287 182.586 123.268 182.586C113.25 182.586 105.129 190.725 105.129 200.764C105.129 210.804 113.25 218.943 123.268 218.943Z" fill="#A0616A"/>
<path d="M140.36 349.666C137.523 349.683 134.74 348.885 132.342 347.367C123.553 341.863 113.574 344.05 108.407 345.844C107.895 346.024 107.348 346.086 106.808 346.024C106.268 345.963 105.749 345.779 105.29 345.488C104.836 345.203 104.453 344.818 104.168 344.363C103.884 343.907 103.706 343.393 103.648 342.859L94.2525 258.762C92.6779 244.671 101.148 231.424 114.391 227.262C114.889 227.106 115.395 226.958 115.909 226.818C120.03 225.698 124.346 225.497 128.553 226.229C132.761 226.961 136.757 228.608 140.26 231.054C143.829 233.526 146.814 236.753 149.005 240.507C151.195 244.26 152.538 248.449 152.939 252.779L160.849 337.44C160.903 337.988 160.829 338.541 160.634 339.056C160.438 339.571 160.126 340.033 159.722 340.406C156.948 342.976 148.899 349.665 140.36 349.666Z" fill="#479FFF"/>
<path d="M111.748 276.796L90.5516 274.46C89.9485 274.394 89.3667 274.198 88.8459 273.886C88.3251 273.573 87.8776 273.153 87.5338 272.651C87.19 272.15 86.958 271.581 86.8537 270.982C86.7493 270.383 86.775 269.768 86.9291 269.18L92.3249 248.57C92.4838 247.026 92.9467 245.528 93.6867 244.163C94.4268 242.799 95.4293 241.595 96.6364 240.621C97.8434 239.647 99.2311 238.923 100.719 238.49C102.207 238.057 103.766 237.923 105.306 238.098C106.846 238.272 108.336 238.75 109.69 239.505C111.045 240.26 112.236 241.276 113.196 242.495C114.156 243.714 114.866 245.112 115.283 246.607C115.701 248.102 115.819 249.666 115.63 251.207L116.432 272.431C116.455 273.038 116.347 273.644 116.115 274.206C115.883 274.768 115.533 275.274 115.089 275.688C114.645 276.103 114.117 276.416 113.541 276.608C112.965 276.799 112.354 276.864 111.751 276.797L111.748 276.796Z" fill="#479FFF"/>
<path d="M160.763 341.589C161.634 340.821 162.326 339.871 162.79 338.806C163.255 337.741 163.481 336.586 163.452 335.424C163.424 334.262 163.141 333.121 162.625 332.08C162.108 331.039 161.371 330.124 160.463 329.4L155.239 260.685L139.886 264.149L148.896 331.067C147.782 332.675 147.295 334.637 147.529 336.581C147.762 338.524 148.699 340.315 150.162 341.612C151.625 342.909 153.512 343.624 155.465 343.619C157.419 343.615 159.303 342.892 160.76 341.589H160.763Z" fill="#A0616A"/>
<path d="M134 272.477C133.556 272.062 133.206 271.557 132.974 270.995C132.742 270.433 132.635 269.828 132.658 269.22L133.459 247.997C133.286 246.463 133.416 244.91 133.842 243.427C134.268 241.944 134.982 240.56 135.942 239.353C136.901 238.146 138.089 237.141 139.437 236.394C140.784 235.647 142.266 235.174 143.796 235C145.326 234.827 146.876 234.958 148.355 235.385C149.835 235.812 151.217 236.526 152.421 237.488C153.625 238.45 154.629 239.641 155.374 240.991C156.119 242.342 156.592 243.826 156.765 245.36L162.16 265.969C162.314 266.558 162.34 267.172 162.236 267.771C162.131 268.37 161.899 268.94 161.556 269.441C161.212 269.942 160.764 270.363 160.244 270.675C159.723 270.987 159.141 271.183 158.538 271.249L137.341 273.585C136.738 273.652 136.128 273.587 135.551 273.396C134.975 273.204 134.447 272.89 134.003 272.475L134 272.477Z" fill="#479FFF"/>
<path d="M122.189 219.628C121.866 219.627 121.544 219.59 121.229 219.516L121.137 219.494C105.189 217.051 101.664 207.791 100.891 203.925C100.09 199.922 101.001 196.059 103.062 194.558C101.939 191.005 102.119 187.851 103.599 185.186C106.184 180.538 111.783 178.969 112.535 178.774C117.009 175.466 122.362 177.674 123.336 178.122C131.991 174.913 135.301 177.584 135.898 178.18C139.766 178.877 142.124 180.374 142.907 182.633C144.378 186.874 139.728 192.151 139.529 192.374L139.426 192.489L132.498 192.82C131.841 192.851 131.197 193.021 130.61 193.318C130.022 193.614 129.503 194.032 129.086 194.542C128.67 195.053 128.365 195.645 128.192 196.282C128.019 196.918 127.981 197.584 128.081 198.236C128.268 199.076 128.505 199.906 128.79 200.719C129.972 204.424 130.858 207.589 129.716 208.793C129.457 209.026 129.138 209.181 128.795 209.24C128.452 209.3 128.099 209.261 127.777 209.129C126.694 208.839 125.959 208.9 125.593 209.311C125.024 209.947 125.198 211.557 126.082 213.844C126.359 214.567 126.434 215.353 126.297 216.116C126.161 216.879 125.819 217.59 125.309 218.172C124.925 218.626 124.447 218.991 123.908 219.243C123.369 219.494 122.782 219.625 122.188 219.628H122.189Z" fill="#2F2E41"/>
</g>
<defs>
<clipPath id="clip0_2_87">
<rect width="592" height="479" fill="white"/>
</clipPath>
</defs>
</svg>
