<svg width="735" height="544" viewBox="0 0 735 544" fill="none" xmlns="http://www.w3.org/2000/svg">
<g clip-path="url(#clip0_1_583)">
<path d="M677.13 132.239C593.709 16.5704 417.486 -30.3497 244.176 20.1844C152.553 46.9002 64.2106 100.429 20.4304 204.079C-57.8314 389.364 106.489 448.539 213.937 467.399C265.893 476.519 314.826 491.838 359.542 512.695C439.991 550.218 582.389 583.468 689.767 427.166C767.595 313.878 732.697 209.285 677.13 132.239Z" fill="#F2F2F2" fill-opacity="0.51"/>
<path d="M193.483 155.123C193.249 153.285 192.777 151.485 192.079 149.767C191.99 149.443 191.834 149.14 191.621 148.879C191.408 148.617 191.142 148.403 190.842 148.249C190.44 148.145 190.019 148.141 189.614 148.236L183.313 149.196C182.786 149.22 182.281 149.416 181.875 149.753C181.055 150.613 181.863 151.998 181.838 153.184C181.81 154.519 180.62 155.602 179.33 155.96C178.013 156.225 176.654 156.208 175.344 155.911L166.533 154.546C169.128 153.721 171.438 152.185 173.199 150.114C174.359 148.745 174.975 146.19 173.3 145.542C172.802 145.406 172.283 145.364 171.769 145.419C167.777 145.45 164.636 142.129 160.899 140.73C158.507 139.893 155.91 139.831 153.481 140.552C151.051 141.274 148.913 142.743 147.371 144.749L152.065 144.974C152.507 144.95 152.945 145.066 153.315 145.306C154.344 146.148 153.065 147.766 153.21 149.085C153.398 150.798 155.681 151.164 157.402 151.337C159.123 151.51 161.307 152.903 160.479 154.417C151.829 157.385 143.027 148.614 133.943 149.693C131.644 149.967 129.473 150.867 127.228 151.433C113.516 154.89 99.3402 145.666 85.3325 147.619C82.2184 148.148 79.1578 148.953 76.187 150.023C74.2805 150.647 72.2919 151.321 70.9067 152.767C69.5215 154.214 68.9942 156.688 70.3065 158.2C66.6895 158.497 63.0483 158.152 59.5522 157.182C60.4976 157.705 61.2841 158.473 61.8292 159.404C62.3742 160.335 62.6577 161.395 62.6498 162.472C57.0023 163.39 51.5043 165.06 46.3037 167.439C47.2743 169.047 48.408 170.552 49.6869 171.93L42.5373 176.506C44.9528 177.113 46.2017 180.395 44.797 182.444C47.3016 181.334 48.8538 178.462 51.532 177.88C53.2866 177.498 55.072 178.214 56.7365 178.885C58.401 179.557 60.2305 180.209 61.9536 179.705C63.6767 179.2 64.9477 176.974 63.8528 175.556C71.2178 173.414 78.8295 172.229 86.499 172.03C87.0907 171.956 87.6908 172.07 88.2141 172.354C89.2125 173.045 88.9498 174.535 88.8961 175.745C88.8423 176.955 89.7884 178.544 90.8734 177.999C89.5969 179.102 90.6881 181.178 91.9128 182.338C93.1374 183.498 94.6134 185.098 93.8637 186.607C93.668 187.001 93.3361 187.316 93.1478 187.713C92.5921 188.886 93.4745 190.253 94.5153 191.032C95.556 191.811 96.8309 192.355 97.5539 193.433C98.2769 194.512 97.9485 196.4 96.6557 196.55L92.9812 191.901C91.7257 193.199 90.865 194.824 90.4989 196.588C94.3955 199.762 94.9816 206.223 91.7194 210.042C90.0523 211.993 87.6816 213.179 85.6126 214.701C83.5435 216.223 81.6289 218.391 81.6341 220.953C81.6431 225.381 81.28 229.494 82.9451 233.599C86.0154 241.168 89.5603 248.537 93.5586 255.663C94.6086 257.534 95.9656 259.585 98.0927 259.907C95.4045 253.387 92.9846 246.764 90.833 240.041C92.2344 240.046 93.8538 240.157 94.6754 241.288C95.3556 242.225 95.2095 243.499 95.4209 244.636C95.6897 245.737 96.1381 246.787 96.748 247.744L109.585 270.529C110.649 272.417 111.87 274.445 113.903 275.21C115.204 275.699 116.708 275.607 117.905 276.311C118.843 276.863 119.475 277.842 120.431 278.362C123.135 279.832 126.896 277.013 129.423 278.768C130.145 279.27 130.605 280.067 131.271 280.641C133.605 282.655 137.434 281.308 140.128 282.81C141.864 283.779 142.764 285.715 143.691 287.47C146.011 291.866 149.764 296.172 154.736 296.522C156.298 296.632 157.894 296.337 159.42 296.683C160.947 297.029 162.45 298.357 162.205 299.898C161.785 302.54 163.094 305.432 162.743 308.084C162.102 312.913 155.226 315.036 154.636 319.872C154.507 320.931 154.709 322.024 154.456 323.06C154.146 324.331 153.188 325.365 152.848 326.628C152.203 329.02 153.924 331.402 155.814 333.012C157.704 334.621 159.958 336.009 160.992 338.263C162.084 340.645 161.547 343.422 161.903 346.017C162.678 351.681 167.588 355.88 172.641 358.588C174.181 359.413 175.834 360.212 176.831 361.643C178.131 363.511 178.002 365.973 178.436 368.205C179.5 373.671 184.118 378.175 184.249 383.741C184.342 387.697 182.135 391.286 180.816 395.019C179.58 398.596 179.133 402.396 179.505 406.161C179.877 409.925 181.059 413.565 182.972 416.833C183.958 418.493 185.138 420.057 185.835 421.856C187.08 425.066 186.676 428.716 187.824 431.962C189.342 436.253 193.513 439.798 193.113 444.331C195.007 448.248 199.188 450.173 203.392 451.339L210.926 453.429C212.369 453.829 213.876 454.233 215.345 453.943C216.815 453.653 218.216 452.438 218.179 450.946C214.484 450.116 210.67 449.233 207.625 446.989C204.579 444.746 202.492 440.751 203.648 437.157C204.184 435.49 205.324 433.565 204.24 432.188C203.619 431.4 202.485 431.194 201.785 430.474C200.693 429.352 201.068 427.467 201.853 426.114C202.638 424.761 203.772 423.552 204.089 422.021C204.249 421.165 204.142 420.281 203.783 419.487C203.424 418.692 202.83 418.027 202.08 417.579C203.477 417.053 204.748 416.241 205.809 415.194C206.79 414.078 207.243 412.358 206.472 411.089C208.763 411.379 211.467 411.52 212.971 409.774C214.172 408.38 214.09 406.295 213.615 404.519C213.141 402.744 212.339 401.019 212.314 399.182C217.599 399.431 222.895 399.252 228.151 398.646C227.391 396.096 225.664 393.941 223.336 392.638C225.716 392.236 227.885 389.397 228.637 387.111C229.389 384.825 229.197 382.335 228.732 379.975C228.554 379.367 228.529 378.724 228.661 378.105C228.929 377.254 229.768 376.734 230.545 376.29L242.36 369.529C243.065 369.177 243.704 368.707 244.25 368.139C245.488 366.69 245.304 364.503 244.67 362.708C244.036 360.913 243.021 359.225 242.777 357.338C242.047 351.694 248.11 347.644 250.157 342.331C250.96 340.246 251.123 337.98 251.279 335.752C251.446 333.359 251.458 330.58 249.614 329.038C247.847 327.56 245.085 327.89 243.235 326.515C241.54 325.254 240.955 322.806 239.102 321.788C237.42 320.863 235.311 321.451 233.44 321.016C230.145 320.251 228.072 316.468 224.708 316.117C222.81 315.92 220.661 316.844 219.105 315.743C217.734 314.772 217.679 312.821 217.419 311.166C216.961 308.593 215.724 306.221 213.872 304.371C212.021 302.52 209.645 301.28 207.065 300.816C205.107 300.503 202.977 300.622 201.312 299.55C199.626 298.465 198.853 296.433 197.529 294.93C195.394 292.508 192.032 291.647 188.883 290.91L176.074 287.909C173.8 287.376 170.869 287.094 169.649 289.079C169.287 289.834 169.032 290.636 168.889 291.461C168.431 292.953 167.511 294.262 166.26 295.2C165.01 296.138 163.492 296.657 161.927 296.682C160.853 294.857 159.114 293.516 157.072 292.939C155.773 292.578 154.383 292.538 153.144 292.007C152.47 291.679 151.869 291.217 151.38 290.65C150.891 290.083 150.523 289.422 150.299 288.708C150.074 287.994 149.999 287.242 150.077 286.498C150.154 285.754 150.383 285.034 150.75 284.381C151.489 283.071 151.774 281.555 151.562 280.067C151.35 278.579 150.652 277.202 149.577 276.149C147.398 274.2 144.247 273.73 141.326 273.924C140.561 272.261 141.84 270.385 143.219 269.176C144.597 267.967 146.271 266.779 146.571 264.974C147.043 262.135 143.407 259.978 140.647 260.825C137.886 261.671 136.125 264.343 134.96 266.977C134.292 268.488 133.723 270.079 132.669 271.353C131.615 272.627 129.918 273.54 128.312 273.131C126.039 272.552 125.161 269.861 124.658 267.578C123.983 264.514 123.304 261.408 123.446 258.275C123.587 255.141 124.647 251.924 126.966 249.803C130.745 246.347 136.541 246.685 141.641 247.237C140.436 245.884 140.734 243.605 142.023 242.332C142.703 241.729 143.521 241.301 144.405 241.085C145.289 240.868 146.212 240.87 147.096 241.09C148.632 241.409 150.016 242.233 151.025 243.431C152.475 245.192 152.887 247.569 153.982 249.567C155.077 251.565 157.54 253.269 159.556 252.197C161.297 251.271 161.574 248.866 161.14 246.947C160.707 245.028 159.787 243.163 159.944 241.202C160.243 237.462 164.135 235.21 167.569 233.669C171.003 232.129 174.935 230.057 175.479 226.344C175.498 225.617 175.635 224.898 175.886 224.215C176.267 223.612 176.797 223.116 177.424 222.774C187.446 216.175 197.635 209.494 209.09 205.888C209.686 205.701 209.756 205.909 210.364 205.762C211.214 205.273 210.65 203.918 209.835 203.373C209.02 202.827 207.931 202.409 207.724 201.453C207.572 200.75 207.988 200.059 208.096 199.348C208.361 197.601 206.264 195.988 204.635 196.687C203.714 195.472 205.535 194.061 207.007 193.658C211.428 192.445 215.966 191.707 220.544 191.454C221.073 191.37 221.614 191.462 222.085 191.715C222.854 192.246 222.756 193.463 222.211 194.221C221.666 194.978 220.818 195.454 220.139 196.095C219.397 196.815 218.868 197.725 218.609 198.724C218.35 199.723 218.372 200.774 218.672 201.762C221.062 202.974 223.66 204.221 226.307 203.794C228.955 203.367 231.304 200.404 230.06 198.037C228.901 195.833 225.421 195.336 224.822 192.92C224.121 190.092 228.14 187.576 227.234 184.806C226.838 183.593 225.624 182.879 224.693 182.003C223.593 180.929 222.845 179.548 222.547 178.043C222.249 176.538 222.415 174.978 223.022 173.568C221.506 173.834 219.947 173.733 218.477 173.275C217.007 172.817 215.669 172.014 214.575 170.934C212.555 168.902 210.943 165.697 208.074 165.788C205.441 165.871 203.173 168.932 200.711 167.998C200.105 167.768 199.467 167.301 198.88 167.575C198.688 167.699 198.526 167.866 198.408 168.061C198.289 168.257 198.217 168.477 198.197 168.705C197.571 171.685 198.647 175.081 197.017 177.656C195.243 180.459 191.14 180.848 188.989 183.375C187.822 184.747 187.369 186.595 186.296 188.042C185.223 189.488 182.945 190.408 181.658 189.147C182.29 187.851 182.463 186.379 182.148 184.972C181.832 183.565 181.047 182.306 179.921 181.401C178.725 180.624 177.436 179.999 176.084 179.542C174.574 178.905 173.137 178.107 171.799 177.162C171.128 176.759 170.584 176.178 170.225 175.484C169.942 174.616 169.98 173.675 170.333 172.832C170.986 170.966 172.138 169.314 173.665 168.053C175.191 166.792 177.035 165.971 178.995 165.677C180.71 165.445 182.706 165.527 183.84 164.225C184.441 163.536 184.756 162.495 185.627 162.215C186.185 162.104 186.764 162.175 187.277 162.418L193.677 164.662C194.391 164.984 195.177 165.113 195.957 165.038C196.344 164.986 196.697 164.79 196.944 164.49C197.192 164.19 197.317 163.807 197.294 163.419C197.089 162.36 195.454 161.852 195.603 160.784C195.686 160.438 195.873 160.125 196.138 159.887C198.448 157.437 201.273 155.527 204.41 154.292C207.547 153.058 210.92 152.53 214.286 152.746C215.094 154.068 213.816 155.633 212.753 156.762C211.69 157.89 210.836 159.907 212.122 160.775C212.648 161.043 213.234 161.175 213.826 161.158C215.401 161.37 216.933 161.833 218.361 162.529C220.573 163.488 222.742 164.537 224.869 165.676C224.681 164.279 224.502 162.807 225.033 161.501C225.565 160.194 227.075 159.17 228.394 159.679C229.666 160.169 230.318 161.847 231.673 162C233.48 162.205 234.193 159.545 233.438 157.896C232.683 156.248 231.189 154.867 231.064 153.059C230.98 151.839 231.446 150.327 230.468 149.588C230.12 149.366 229.725 149.228 229.314 149.185L204.9 144.708C203.45 144.442 201.355 144.646 201.291 146.114C201.255 146.933 201.989 147.743 201.664 148.496C201.317 149.3 200.176 149.227 199.346 149.511C198.057 149.952 197.41 151.477 197.534 152.829C197.761 154.173 198.283 155.45 199.063 156.568C197.475 155.907 195.071 155.785 193.483 155.123Z" fill="#3F3D56"/>
<path d="M174.002 134.472C172.463 133.964 170.804 133.941 169.25 134.404C167.696 134.868 166.324 135.796 165.318 137.064C164.916 137.591 164.578 138.318 164.914 138.889C165.397 139.708 166.626 139.385 167.533 139.092C168.865 138.617 170.315 138.583 171.669 138.993C172.52 139.285 173.281 139.799 174.136 140.079C174.552 140.253 175.008 140.31 175.454 140.245C175.9 140.18 176.321 139.995 176.67 139.71C177.256 139.114 177.293 138.187 177.294 137.352C177.335 137.073 177.312 136.788 177.228 136.518C177.145 136.249 177.001 136.001 176.809 135.794C176.467 135.596 176.082 135.483 175.687 135.463C174.803 135.3 174.003 134.834 173.426 134.147" fill="#3F3D56"/>
<path d="M182.806 132.03C182.461 132.011 182.118 132.081 181.808 132.233C181.498 132.385 181.233 132.613 181.038 132.897C180.843 133.18 180.724 133.509 180.693 133.852C180.662 134.194 180.72 134.539 180.862 134.852C181.92 135.14 183.025 135.212 184.112 135.063C184.654 134.98 185.159 134.738 185.563 134.368C185.967 133.999 186.253 133.519 186.384 132.988C185.104 133.22 183.784 132.969 182.681 132.283" fill="#3F3D56"/>
<path d="M212.342 127.951C209.462 128.561 206.665 129.508 204.008 130.772C205.26 131.252 206.325 132.12 207.045 133.248C207.765 134.376 208.103 135.705 208.007 137.039C207.895 137.551 207.908 138.083 208.045 138.588C208.351 139.328 209.238 139.605 210.018 139.795C211.419 140.22 212.882 140.406 214.345 140.345C215.077 140.307 215.788 140.088 216.413 139.707C217.039 139.326 217.559 138.796 217.927 138.165C218.139 137.565 218.388 136.979 218.672 136.41C220.541 133.574 226.094 137.003 228.101 134.262C228.808 133.296 228.743 131.842 229.665 131.077C230.141 130.744 230.694 130.534 231.272 130.466C235.308 129.667 239.384 129.088 243.484 128.733C245.426 128.565 247.957 127.87 247.974 125.927C240.658 124.495 233.072 125.512 226.397 128.819C223.991 130.02 220.81 132.545 218.493 130.953C217.626 130.358 217.669 128.753 216.475 128.083C215.254 127.398 213.638 127.677 212.342 127.951Z" fill="#3F3D56"/>
<path d="M236.267 132.409L239.701 133.066C239.069 133.038 238.438 133.145 237.851 133.38C237.263 133.614 236.733 133.97 236.294 134.425C235.856 134.88 235.52 135.422 235.309 136.017C235.098 136.611 235.016 137.243 235.07 137.872C238.286 138.942 241.792 137.9 245.18 138.043C248.567 138.185 252.509 140.596 251.93 143.925C251.756 144.932 251.172 145.938 251.476 146.913C251.688 147.597 252.294 148.083 252.635 148.712C253.347 150.025 252.778 151.685 251.879 152.878C250.98 154.071 249.772 155.023 248.983 156.291C247.02 159.445 248.135 163.522 249.304 167.045C249.642 168.376 250.266 169.619 251.134 170.686C252.866 172.521 255.689 172.68 258.217 172.717C260.057 172.744 262.164 172.653 263.328 171.233C264.847 169.378 263.785 166.485 264.785 164.309C265.693 162.332 268.007 161.484 270.104 160.882C273.945 159.78 277.86 158.844 281.491 157.179C286.001 155.113 290.215 151.892 295.171 151.626C296.562 151.551 297.987 151.715 299.326 151.335C300.666 150.956 301.938 149.802 301.836 148.418C301.75 147.235 300.746 146.367 299.961 145.476C299.177 144.585 298.561 143.214 299.282 142.271L312.273 139.853C311.352 137.352 310.635 134.059 312.751 132.431C313.514 131.844 314.537 131.609 315.187 130.899C316.295 129.689 315.737 127.605 314.459 126.576C313.18 125.547 311.45 125.308 309.812 125.172C304.116 124.701 298.387 125.012 292.679 125.324C281.523 125.933 270.366 126.543 259.209 127.152C256.963 127.275 254.37 127.087 252.31 127.851C250.567 128.497 249.327 129.684 247.332 130.1C243.65 130.87 239.599 130.349 236.267 132.409Z" fill="#3F3D56"/>
<path d="M297.788 159.456C297.438 159.401 297.08 159.482 296.788 159.682C296.596 159.894 296.481 160.164 296.463 160.45C296.241 161.71 296.505 163.006 297.202 164.08C297.557 164.607 298.048 165.029 298.622 165.304C299.196 165.578 299.834 165.694 300.468 165.64C302.015 165.444 303.154 164.129 304.576 163.488C306.767 162.5 316.072 160.96 309.635 157.495C307.417 156.301 305.983 157.356 304.235 158.142C302.246 159.156 300.017 159.61 297.788 159.456Z" fill="#3F3D56"/>
<path d="M354.165 130.453C353.414 130.759 352.785 131.304 352.377 132.004C352.189 132.359 352.146 132.772 352.255 133.159C352.365 133.545 352.619 133.875 352.966 134.079C353.247 134.181 353.544 134.228 353.843 134.218L356.899 134.309C358.197 134.348 359.819 134.623 360.168 135.87C360.427 136.795 359.847 137.985 360.546 138.646C360.847 138.878 361.208 139.018 361.586 139.05C362.593 139.308 363.644 139.342 364.665 139.149C366.889 138.555 365.72 137.203 366.421 135.999C367.492 134.157 367.307 135.272 369.195 134.216C370.589 133.436 372.391 132.022 371.227 130.034C369.203 126.578 357.152 128.968 354.165 130.453Z" fill="#3F3D56"/>
<path d="M414.483 128.715L412.709 128.951C408.707 129.483 404.683 130.02 400.829 131.218C402.497 131.875 404.247 132.303 406.032 132.49C407.014 132.538 407.989 132.676 408.946 132.903C410.648 133.407 412.364 134.711 414.008 134.043C415.028 133.629 415.361 132.571 416.205 132.011C416.789 131.623 419.001 130.997 419.248 130.606C421.248 127.447 416.02 128.511 414.483 128.715Z" fill="#3F3D56"/>
<path d="M422.276 136.752C419.905 138.072 417.706 139.677 415.727 141.53C414.893 142.311 414.042 143.282 414.117 144.42C414.218 145.932 415.834 146.809 417.235 147.4L422.908 149.793C423.596 148.827 422.966 147.493 422.255 146.543C421.543 145.593 420.698 144.494 421.012 143.351C421.371 142.047 422.967 141.603 424.305 141.378C426.486 141.012 432.368 141.041 431.662 137.54C430.829 133.414 424.464 135.532 422.276 136.752Z" fill="#3F3D56"/>
<path d="M421.135 370.246C420.595 371.804 420.543 373.639 421.478 374.999C422.526 376.526 424.624 377.095 426.439 376.708C428.246 376.228 429.857 375.196 431.045 373.757C432.131 372.551 433.025 371.185 433.694 369.708C434.629 367.407 435.288 365.004 435.658 362.549L437.419 353.334C437.813 351.275 437.798 344.961 433.999 347.018C432.961 347.58 430.558 352.017 429.471 353.275C427.511 355.543 427.251 357.743 426.22 360.491C424.927 363.932 422.33 366.8 421.135 370.246Z" fill="#3F3D56"/>
<path d="M621.77 417.401C620.527 416.917 619.321 416.345 618.161 415.688C616.997 418.875 616.378 422.234 616.331 425.626L624.836 420.83C626.116 420.108 627.566 419.106 627.538 417.641C627.55 417.46 627.512 417.28 627.43 417.118C627.347 416.957 627.222 416.821 627.068 416.724C626.879 416.649 626.673 416.624 626.472 416.654C625.211 416.759 624.061 417.378 622.871 417.808C621.681 418.238 620.29 418.465 619.198 417.827" fill="#3F3D56"/>
<path d="M666.639 420.248C665.705 420.501 664.793 420.827 663.911 421.223C661.959 422.213 660.631 424.092 658.875 425.396C657.194 426.643 655.171 427.328 653.184 427.993C652.6 428.508 652.869 429.544 653.503 429.997C654.185 430.383 654.967 430.558 655.749 430.5C657.813 430.545 659.987 430.565 661.794 429.572C662.813 428.914 663.766 428.16 664.64 427.321C666.754 425.564 669.292 424.405 671.804 423.284C672.718 422.94 673.564 422.437 674.301 421.797C675.879 420.247 675.99 417.856 673.714 417.329C671.875 416.903 668.39 419.683 666.639 420.248Z" fill="#3F3D56"/>
<path d="M686.463 407.344C686.566 406.278 686.423 405.202 686.047 404.199C685.671 403.195 685.071 402.29 684.293 401.551C684.269 403.685 684.204 405.958 683 407.722C682.142 408.979 680.797 409.828 679.857 411.026C678.917 412.223 678.499 414.121 679.602 415.172C680.307 415.706 681.165 416.001 682.051 416.012C684.246 416.27 686.786 416.413 688.326 414.833C689.166 413.97 689.575 412.693 690.6 412.059C690.982 411.899 691.322 411.656 691.597 411.348C692.02 410.677 691.348 409.794 690.591 409.553C689.834 409.311 689 409.425 688.24 409.195C687.479 408.966 686.781 408.114 687.172 407.424" fill="#3F3D56"/>
<path d="M651.229 329.121C650.077 329.4 648.885 329.471 647.708 329.328C645.754 328.97 644.233 327.503 642.655 326.299C638.905 323.454 634.346 321.867 629.634 321.766C625.347 321.685 621.02 322.843 616.81 322.035C617.085 323.56 618.394 324.703 619.791 325.383C621.188 326.062 622.729 326.405 624.133 327.07C626.381 328.147 628.164 329.995 629.155 332.276C629.607 333.328 629.891 334.472 630.576 335.39C631.976 337.266 634.629 337.678 636.97 337.525C640.023 337.325 643.211 336.45 646.051 337.583C648.224 338.45 649.779 340.345 651.593 341.818C653.407 343.292 655.962 344.385 658.045 343.322C655.881 342.624 653.998 341.255 652.67 339.415C651.343 337.576 650.64 335.361 650.665 333.095C652.708 333.283 658.592 333.21 658.275 329.751C658.006 326.82 652.983 328.805 651.229 329.121Z" fill="#3F3D56"/>
<path d="M624.503 352.972C624.866 350.989 626.85 349.239 626.232 347.32C625.804 345.993 624.26 345.338 622.862 345.305C621.464 345.273 620.09 345.688 618.692 345.727C617.782 345.678 616.87 345.691 615.962 345.765C613.187 346.22 611.476 349.118 608.861 350.149C607.271 350.775 605.484 350.655 603.831 351.089C600.076 352.072 597.701 355.607 595.077 358.457C590.836 363.041 585.312 366.251 579.22 367.671C577.085 368.164 574.79 368.479 573.094 369.86C570.847 371.689 570.294 374.825 569.794 377.673C568.413 385.538 566.302 393.259 563.489 400.735L572.403 401.869C574.098 402.085 575.854 402.296 577.488 401.796C578.674 401.35 579.798 400.753 580.832 400.021C584.802 397.565 589.245 395.967 593.875 395.33C596.209 395.01 598.657 394.952 600.847 395.816C603.038 396.681 604.917 398.642 605.101 400.982C606.048 400.689 607.058 400.657 608.022 400.891C608.986 401.124 609.868 401.615 610.574 402.309C611.97 403.726 612.884 405.544 613.188 407.507C613.422 408.722 613.657 410.178 614.789 410.688C615.712 411.104 616.771 410.656 617.781 410.575C621.209 410.302 624.053 414.284 627.421 413.598C631.034 412.863 631.921 407.472 635.446 406.392C637.47 405.772 640.31 406.526 641.279 404.649C642.133 402.996 640.429 401.087 640.604 399.236C640.821 396.956 643.52 395.988 645.601 395.015C652.775 391.661 656.179 382.04 652.703 374.945C650.643 370.74 646.59 367.431 645.842 362.813C645.266 359.259 646.672 355.116 644.398 352.319C643.242 350.896 641.283 350.11 640.595 348.413C640.162 347.344 640.336 346.132 640.103 345.003C639.87 343.874 638.881 342.693 637.762 342.986C634.515 343.835 633.478 353.831 631.74 356.26C629.097 359.952 623.671 357.52 624.503 352.972Z" fill="#3F3D56"/>
<path d="M564.475 332.898C563.365 332.588 562.153 332.283 561.09 332.726C560.026 333.169 559.405 334.725 560.259 335.497C566.936 335.238 573.653 334.98 580.274 335.884C587.901 336.925 595.45 339.503 603.11 338.745C598.734 337.458 594.286 336.43 589.789 335.664L582.289 334.237C580.277 333.817 578.244 333.504 576.199 333.299C571.92 332.947 568.682 334.074 564.475 332.898Z" fill="#3F3D56"/>
<path d="M571.159 309.728C570.605 309.681 569.918 309.642 569.632 310.117C569.358 310.57 569.671 311.17 569.524 311.678C569.323 312.374 568.409 312.551 567.689 312.456C566.97 312.362 566.191 312.135 565.553 312.481C565.23 312.701 564.987 313.02 564.861 313.389C564.735 313.759 564.732 314.159 564.853 314.53C565.114 315.267 565.536 315.936 566.088 316.491C567.031 317.675 568.106 318.749 569.291 319.692C571.586 321.38 574.695 322.194 576.14 324.644C576.344 325.119 576.658 325.539 577.055 325.87C577.749 326.308 578.654 325.975 579.401 325.635L582.019 324.443C582.491 324.274 582.912 323.988 583.244 323.613C583.842 322.804 583.474 321.654 582.972 320.783C582.47 319.912 581.827 319.01 581.935 318.011C582.127 316.23 584.426 315.548 585.371 314.024C586.323 312.488 585.703 310.509 585.813 308.706C585.942 306.598 587.271 303.856 585.132 302.281C583.314 300.942 581.577 302.179 580.272 303.657C577.52 306.773 576.218 310.148 571.159 309.728Z" fill="#3F3D56"/>
<path d="M587.055 278.23C587.949 279.936 589.812 280.954 590.787 282.615C591.844 284.415 591.724 286.741 592.87 288.487C594.046 290.277 596.413 291.228 597.073 293.264C597.793 295.487 596.159 298.19 597.461 300.132C597.704 300.45 598.011 300.714 598.361 300.907C598.712 301.1 599.099 301.219 599.498 301.256C599.897 301.292 600.299 301.246 600.679 301.119C601.059 300.993 601.409 300.789 601.706 300.521C602.255 299.925 602.549 299.139 602.525 298.331C602.501 297.522 602.161 296.755 601.577 296.193C600.806 295.492 599.699 295.189 599.055 294.371C598.72 293.899 598.496 293.357 598.402 292.786C598.051 291.14 598.107 289.433 598.565 287.813C598.738 287.402 598.781 286.949 598.691 286.513C598.401 285.673 597.26 285.614 596.459 285.224C594.641 284.34 594.685 281.782 595.003 279.791C594.791 281.117 590.052 278.862 589.555 278.111C588.569 276.619 589.106 273.741 588.911 272.093C586.782 273.115 585.961 276.145 587.055 278.23Z" fill="#3F3D56"/>
<path d="M539.306 304.473C538.431 303.498 537.114 302.477 535.941 303.065C535.046 303.514 534.8 304.748 535.151 305.683C535.578 306.591 536.236 307.373 537.059 307.95C539.503 309.958 542.135 311.771 544.267 314.106C548.083 318.284 550.104 323.922 554.254 327.771C555.088 328.664 556.193 329.259 557.399 329.467C558.608 329.579 559.965 328.808 560.104 327.606C560.219 326.616 559.526 325.73 558.849 324.996C557.237 323.249 555.472 321.641 553.95 319.815C553.248 319.114 552.806 318.195 552.698 317.209C552.691 316.226 553.59 315.198 554.546 315.441C553.384 315.145 552.521 313.215 550.815 312.853C549.39 312.549 549.045 313.429 547.348 312.704C544.112 311.321 541.572 307.001 539.306 304.473Z" fill="#3F3D56"/>
<path d="M615.349 209.46C614.421 209.185 613.508 208.86 612.615 208.487C610.212 207.768 607.033 209.528 607.354 212.007C607.566 213.655 609.105 214.765 609.955 216.194C611.215 218.313 610.879 221.001 610.217 223.374C610.054 224.109 609.745 224.803 609.307 225.417C608.696 226.064 607.965 226.588 607.154 226.96C603.909 228.773 601.048 231.196 598.727 234.094C598.475 234.361 598.3 234.691 598.219 235.049C598.104 235.887 598.948 236.496 599.426 237.195C600.486 238.745 599.72 240.832 599.825 242.706C599.809 242.971 599.861 243.236 599.976 243.475C600.091 243.714 600.266 243.92 600.484 244.074C601.123 244.397 601.88 243.848 602.227 243.222C603.377 241.146 602.511 237.815 604.668 236.814C605.076 236.625 605.57 236.545 605.842 236.188C606.274 235.621 605.858 234.782 606.076 234.105C606.405 233.088 607.801 233.043 608.872 233.088C610.717 233.165 612.561 232.92 614.321 232.365C615.012 232.201 615.639 231.839 616.125 231.324C616.77 230.522 616.713 229.382 616.584 228.362C615.939 223.28 614.323 218.368 611.825 213.891C613.719 214.132 615.781 214.341 617.416 213.357C618.331 212.806 619.429 211.159 618.975 210.037C618.257 208.264 616.96 209.756 615.349 209.46Z" fill="#3F3D56"/>
<path d="M372.444 237.412C372.671 238.623 372.894 239.899 372.495 241.066C372.097 242.233 370.843 243.208 369.659 242.851C368.74 242.573 368.209 241.653 367.557 240.951C363.929 237.048 355.743 239.308 353.502 234.479C352.587 232.508 353.208 230.148 352.585 228.067C352.191 226.865 351.408 225.827 350.358 225.116C349.308 224.406 348.051 224.063 346.784 224.141C345.629 224.307 344.504 224.642 343.446 225.134C336.36 227.962 328.92 229.816 321.332 230.645C319.89 230.733 318.464 230.991 317.083 231.415C313.967 232.541 311.838 235.419 310.323 238.356C308.808 241.293 307.69 244.473 305.658 247.083C303.524 249.825 300.532 251.745 297.742 253.822C296.667 254.513 295.772 255.448 295.13 256.55C294.525 257.787 294.559 259.227 294.606 260.602L295.177 277.311C295.25 279.46 295.342 281.686 296.308 283.609C297.513 286.011 299.894 287.584 301.546 289.706C303.232 291.886 304.11 294.58 304.032 297.331C303.997 298.437 303.887 299.745 304.751 300.44C305.277 300.78 305.893 300.956 306.519 300.947L329.203 302.796C333.193 303.122 337.615 303.657 340.22 306.686C341.449 308.116 342.437 310.171 344.32 310.325C345.128 310.391 345.914 310.06 346.722 309.996C348.76 309.836 350.551 311.377 351.681 313.075C353.391 315.663 354.168 318.754 353.883 321.839C353.697 323.776 353.095 325.659 352.965 327.601C352.47 334.988 358.755 341.405 358.877 348.808C358.948 353.162 356.874 357.23 354.851 361.091C358.116 366.018 355.443 372.579 356.742 378.339C357.975 383.804 362.548 388.082 363.688 393.567C364.209 396.078 364.239 399.168 366.461 400.461C367.437 400.935 368.517 401.15 369.6 401.087C376.132 401.165 382.589 399.7 388.444 396.813C391.191 395.454 394.039 393.426 394.519 390.407C394.906 387.973 393.667 385.25 394.928 383.129C396.414 380.63 400.221 380.828 402.408 378.906C405.955 375.789 403.189 369.844 404.626 365.354C405.918 361.318 410.365 359.174 412.57 355.551C413.437 353.994 414.06 352.312 414.416 350.566C415.426 346.393 416.054 342.138 416.294 337.852C416.353 335.248 416.545 332.649 416.871 330.065C419.248 315.351 433.846 305.499 438.585 291.365C439.038 290.015 439.25 288.217 438.045 287.453C437.33 287.113 436.52 287.029 435.75 287.214L425.293 288.527C423.995 288.691 422.618 288.843 421.425 288.306C420.233 287.768 419.378 286.265 420.01 285.123C421.786 281.917 418.133 277.867 416.51 274.582C412.139 265.737 406.934 257.326 400.965 249.462C400.583 249.058 400.344 248.54 400.284 247.988L403.251 248.086C402.25 244.504 400.597 240.585 397.104 239.275C395.136 238.536 392.957 238.792 390.857 238.906C384.844 239.233 378.396 238.329 372.444 237.412Z" fill="#3F3D56"/>
<path d="M390.862 156.696C392.436 158.361 394.199 160.127 396.476 160.417C400.498 160.93 403.39 156.786 405.231 153.186C405.299 154.104 405.724 154.959 406.415 155.569C407.105 156.18 408.008 156.498 408.931 156.455C409.923 156.289 410.871 155.92 411.714 155.371C419.682 151.032 428.607 148.733 437.687 148.681C437.6 147.995 437.77 147.302 438.166 146.735C438.562 146.167 439.154 145.766 439.829 145.608C441.675 145.243 443.338 146.834 444.229 148.486C445.119 150.138 445.675 152.053 447.09 153.29C448.505 154.526 451.244 154.472 451.803 152.682C452.34 150.962 450.542 149.496 449.049 148.483C447.555 147.469 445.981 145.593 446.987 144.097C454.616 142.414 462.293 140.725 470.1 140.391C471.429 140.437 472.753 140.21 473.99 139.723C475.181 139.141 476.127 137.819 475.807 136.537C474.104 136.936 472.319 136.82 470.682 136.205C469.044 135.59 467.628 134.502 466.613 133.081C477.446 132.191 488.967 131.432 498.567 136.51C499.719 138.975 493.848 141.025 495.419 143.248C495.92 143.956 496.924 144.04 497.794 144.056C504.465 144.179 511.175 144.3 517.771 143.296C520.181 142.93 522.616 142.412 525.036 142.709C529.067 143.205 532.514 145.885 536.48 146.758C538.094 147.114 539.904 147.126 541.264 146.191C542.625 145.255 543.21 143.125 542.095 141.909C545.829 138.263 552.025 139.167 556.951 140.912C561.877 142.658 566.544 145.473 571.757 145.862C575.496 146.141 579.286 145.139 582.98 145.776C585.301 146.176 587.462 147.205 589.731 147.838C594.022 149.033 598.561 148.781 603.017 148.839C614.384 148.991 625.628 151.217 636.191 155.407C637.565 155.853 638.824 156.594 639.879 157.578C640.861 158.627 641.363 160.256 640.702 161.531L629.787 159.942C630.816 161.959 633.476 162.303 635.637 162.999C637.797 163.695 640.038 166.072 638.739 167.929C636.398 167.186 634.277 169.518 633.094 171.664C631.912 173.81 630.47 176.379 628.017 176.51C625.82 176.627 623.163 174.763 621.731 176.427C623.71 178.914 625.404 181.613 626.782 184.474C628.197 187.41 629.205 191.111 627.292 193.753C626.992 194.225 626.535 194.577 626.002 194.75C624.44 195.144 623.426 193.24 622.306 192.087C620.895 190.633 618.76 190.221 616.849 189.539C614.938 188.857 612.925 187.516 612.775 185.499C612.682 184.244 613.347 183.077 613.837 181.917C614.66 179.962 615.021 177.844 614.889 175.728C614.782 174.025 614.303 172.254 613.076 171.065C611.849 169.875 609.73 169.498 608.413 170.587C607.798 171.096 607.306 171.909 606.507 171.939C605.097 171.993 604.014 169.543 602.879 170.379C603.012 171.27 602.827 172.18 602.355 172.949C598.969 175.883 593.767 174.642 589.402 175.678C587.326 176.27 585.339 177.135 583.492 178.25C582.801 178.544 582.213 179.036 581.803 179.663C581.258 180.718 581.859 182.069 582.819 182.771C583.838 183.393 584.982 183.782 586.17 183.91C591.492 184.915 596.892 186.469 601.094 189.876C605.295 193.282 608.051 198.912 606.721 204.144L596.226 194.152C596.624 198.347 596.851 202.554 596.905 206.773C596.972 207.597 596.859 208.425 596.572 209.201C595.824 210.848 593.796 211.402 592.019 211.765C591.525 211.859 591.056 212.055 590.643 212.342C590.231 212.629 589.884 213 589.625 213.43C589.367 213.86 589.202 214.34 589.143 214.837C589.084 215.335 589.131 215.84 589.281 216.318C589.912 218.369 591.487 219.967 592.928 221.56C594.369 223.153 595.788 224.964 595.976 227.1C596.165 229.237 594.547 231.645 592.4 231.497C590.772 231.384 589.564 229.932 588.87 228.461C588.176 226.989 587.763 225.35 586.719 224.1C583.562 220.316 576.469 221.937 573.64 217.903C572.919 218.718 572.419 219.703 572.188 220.765C571.956 221.826 572.001 222.929 572.317 223.969C573.633 223.148 575.435 223.911 576.424 225.104C577.412 226.296 577.879 227.826 578.655 229.165C579.703 230.973 581.371 232.576 581.517 234.658C581.478 235.446 581.491 236.235 581.557 237.02C581.817 238.282 582.887 239.188 583.629 240.243C585.356 242.697 585.271 246.069 584.158 248.853C583.045 251.637 581.045 253.964 579.064 256.22C575.605 260.16 572.075 264.077 567.974 267.349C566.804 268.283 565.555 269.201 564.826 270.506C564.097 271.811 564.06 273.643 565.18 274.636C564.379 274.676 562.941 275.069 562.14 275.109C561.858 271.906 561.797 268.687 561.957 265.476C558.794 263.962 555.389 268.015 555.797 271.486C556.205 274.958 558.725 277.744 560.52 280.748C561.832 282.945 562.807 285.506 562.369 288.025C561.931 290.544 559.674 292.867 557.119 292.645C553.054 292.292 551.353 286.477 547.328 285.811C546.972 285.728 546.6 285.765 546.268 285.916C545.67 286.243 545.567 287.039 545.533 287.718C545.368 291.047 545.226 294.509 546.53 297.579C548.438 302.07 553.368 305.842 552.334 310.608C546.763 308.028 543.867 301.803 542.552 295.824C541.237 289.844 541.018 283.567 538.66 277.915C536.87 280.201 533.108 278.311 531.472 275.913C529.922 273.639 528.967 271.009 527.463 268.704C525.958 266.4 523.654 264.337 520.898 264.21C518.009 264.077 515.503 266.053 513.299 267.92C511.487 269.455 509.626 271.05 508.567 273.172C507.026 276.26 507.429 279.9 507.355 283.348C507.274 287.076 506.481 291.009 503.932 293.738C501.382 296.466 496.676 297.417 493.864 294.958C492.395 293.674 491.684 291.755 491.051 289.914C487.999 281.038 485.457 271.995 483.438 262.831C482.965 264.923 481.122 267.619 479.361 266.386C478.966 266.055 478.646 265.644 478.422 265.181C475.137 259.633 469.054 256.306 462.908 254.311C456.762 252.316 450.295 251.385 444.217 249.193C440.811 247.963 437.558 246.349 434.521 244.38C433.747 245.513 433.295 246.834 433.213 248.202C433.131 249.571 433.422 250.936 434.055 252.153C435.404 254.531 438.455 255.908 441.066 255.076C442.416 254.646 443.555 253.713 444.895 253.252C446.234 252.791 448.031 253.017 448.617 254.303C449.177 255.533 448.33 257.022 448.75 258.307C449.39 260.263 452.352 260.414 453.388 262.195C454.158 263.52 453.524 265.279 452.424 266.348C451.324 267.417 449.856 268.003 448.513 268.747C444.155 271.162 441.056 275.284 437.247 278.491C433.439 281.698 428.065 284.039 423.527 281.982C424.608 276.523 418.082 272.516 416.882 267.081C416.487 265.293 416.692 263.393 416.127 261.65C415.311 259.126 413.064 257.391 411.22 255.478C408.984 253.134 407.243 250.366 406.097 247.34C404.952 244.313 404.427 241.089 404.553 237.857C404.653 235.611 405.067 233.329 404.553 231.14C404.04 228.95 402.221 226.832 399.967 226.931C394.819 227.157 388.334 227.539 385.633 223.166C384.669 221.606 384.249 219.32 385.643 218.124C386.626 217.281 388.077 217.36 389.368 217.487L400.968 218.624C403.681 218.89 406.613 219.109 408.941 217.696C411.269 216.283 412.278 212.531 410.122 210.869C408.547 209.654 405.725 209.72 405.267 207.788C404.886 206.18 406.673 204.355 405.708 203.01C405.016 202.046 403.46 202.314 402.517 203.036C401.575 203.759 400.891 204.816 399.836 205.363C397.985 206.323 395.773 205.409 393.782 204.788C391.791 204.168 389.121 204.115 388.155 205.958C387.075 208.019 389.113 210.719 388.041 212.785C386.624 215.515 381.824 213.961 379.834 216.309C377.549 219.004 381.388 223.023 380.617 226.466C379.634 226.951 378.541 227.174 377.445 227.113C376.35 227.052 375.289 226.708 374.366 226.116C373.459 225.501 372.735 224.652 372.273 223.66C371.811 222.669 371.628 221.57 371.742 220.483C371.933 218.934 372.743 217.353 372.2 215.889C371.761 214.706 370.569 214.001 369.46 213.391L358.189 207.185C357.142 209.119 358.465 211.517 360.12 212.97C361.774 214.423 363.847 215.517 364.934 217.429C365.621 218.754 365.776 220.291 365.365 221.725C364.954 223.159 364.009 224.383 362.723 225.146C362.562 225.257 362.379 225.332 362.186 225.365C361.993 225.399 361.795 225.39 361.606 225.34C361.426 225.235 361.27 225.095 361.145 224.928C361.021 224.761 360.931 224.571 360.882 224.37C358.893 219.298 355.907 214.298 351.133 211.649C346.359 209 339.499 209.545 336.369 214.007C335.625 215.067 335.126 216.275 334.479 217.396C331.037 223.35 323.66 226.169 316.767 225.985C316.092 226.022 315.422 225.865 314.834 225.533C313.72 224.766 313.771 223.139 313.941 221.801L314.665 216.122C314.81 214.981 315.021 213.721 315.926 213.009C317.203 212.005 319.045 212.639 320.672 212.615C321.904 212.558 323.088 212.124 324.065 211.373C325.041 210.623 325.762 209.591 326.13 208.418C326.459 207.233 326.456 205.982 326.124 204.798C325.791 203.615 325.141 202.544 324.243 201.702C323.498 201.005 322.497 200.128 322.891 199.188C323.048 198.928 323.261 198.705 323.513 198.536C323.766 198.366 324.053 198.254 324.354 198.206C327.275 197.361 330.361 197.14 333.234 196.142C336.106 195.145 338.892 193.105 339.572 190.151C339.78 189.245 339.875 188.149 340.691 187.7C341.101 187.528 341.541 187.438 341.985 187.436C343.542 187.216 344.96 186.422 345.96 185.212C346.959 184.002 347.467 182.462 347.385 180.897C348.762 179.939 350.69 180.644 352.022 181.663C353.354 182.683 354.529 184.029 356.15 184.469C359.169 185.288 362.088 182.624 365.217 182.611C366.533 182.606 367.896 183.07 369.134 182.625C370.389 182.175 371.139 180.93 372.102 180.01C373.065 179.09 374.756 178.529 375.645 179.52L374.888 173.929C376.413 174.313 378.004 174.367 379.552 174.088C381.1 173.81 382.571 173.204 383.865 172.312L374.075 169.016C373.734 168.931 373.419 168.763 373.159 168.528C372.448 167.764 373.155 166.574 373.733 165.706C375.118 163.63 375.35 160.209 373.074 159.175C371.519 158.469 369.735 159.316 368.244 160.145L361.098 164.115C360.871 165.468 362.532 166.235 363.561 167.147C364.184 167.698 364.625 168.425 364.826 169.23C365.027 170.036 364.978 170.883 364.687 171.661C364.396 172.439 363.875 173.111 363.193 173.588C362.512 174.066 361.701 174.327 360.868 174.337C361.339 174.947 361.666 175.654 361.825 176.406C361.984 177.159 361.971 177.937 361.787 178.684L356.98 179.029C356.44 179.137 355.88 179.028 355.42 178.725C354.906 178.27 354.976 177.473 354.857 176.798C354.569 175.169 352.968 174.028 351.335 173.735C349.701 173.442 348.03 173.817 346.412 174.188C345.725 174.434 344.971 174.417 344.296 174.139C343.909 173.889 343.615 173.519 343.459 173.086C342.75 171.373 343.413 169.359 344.552 167.894C345.691 166.428 347.25 165.357 348.651 164.137C352 161.21 354.46 157.407 355.754 153.159C358.401 152.054 361.141 150.553 363.787 149.448C367.868 147.39 372.443 146.506 377 146.897L385.963 147.068C388.617 147.118 391.342 147.183 393.796 148.191C396.249 149.199 398.406 151.379 398.575 154.019C398.626 154.317 398.6 154.624 398.5 154.91C398.399 155.196 398.227 155.452 398 155.654C397.654 155.842 397.261 155.931 396.867 155.908C394.392 155.995 393.337 156.61 390.862 156.696Z" fill="#3F3D56"/>
<path d="M319.422 184.686C319.772 184.355 320.024 183.935 320.15 183.472C320.277 183.008 320.272 182.519 320.137 182.057C319.285 181.73 318.358 181.646 317.461 181.814C316.563 181.983 315.731 182.398 315.057 183.013C314.526 183.548 314.069 184.151 313.696 184.806C312.519 186.72 311.477 189.007 312.16 191.148C312.215 191.381 312.317 191.601 312.459 191.795C312.601 191.988 312.781 192.152 312.987 192.275C313.293 192.398 313.623 192.449 313.952 192.426C315.249 192.424 316.545 192.345 317.833 192.188C318.624 192.091 319.543 191.869 319.848 191.136C320.25 190.172 319.278 189.081 319.561 188.077C319.748 187.627 320.03 187.224 320.389 186.895C320.567 186.729 320.704 186.524 320.789 186.296C320.874 186.069 320.904 185.824 320.878 185.583C320.763 185.112 320.039 184.844 319.778 185.254" fill="#3F3D56"/>
<path d="M326.15 175.994C324.997 175.731 323.809 175.656 322.633 175.774C322.372 175.767 322.114 175.825 321.883 175.944C321.659 176.109 321.496 176.343 321.421 176.61C321.173 177.405 321.234 178.264 321.592 179.016C321.951 179.768 322.58 180.358 323.356 180.668C323.778 180.765 324.183 180.927 324.555 181.148C325.55 181.917 324.916 183.489 325.104 184.73C325.316 186.123 326.669 187.292 326.421 188.679C326.225 189.772 325.054 190.637 325.243 191.731C325.44 192.877 326.899 193.221 328.062 193.313C328.736 193.43 329.43 193.351 330.06 193.084C330.691 192.654 331.14 192.006 331.32 191.266C331.796 189.854 331.997 188.364 331.91 186.876C331.905 186.2 331.734 185.535 331.413 184.939C331.063 184.467 330.675 184.024 330.252 183.614C328.024 181.032 330.37 177.179 326.15 175.994Z" fill="#3F3D56"/>
<path opacity="0.8" d="M619.163 378.31C619.163 378.31 448.5 280.697 375.027 299.192C375.027 299.192 219.316 315.889 201.27 352.622C201.27 352.622 151.773 198.497 133.727 193.359" stroke="#479FFF" stroke-width="2" stroke-miterlimit="10"/>
<path opacity="0.8" d="M201.27 352.622C229.886 276.587 487.685 192.332 487.685 192.332C451.078 201.579 375.027 299.192 375.027 299.192C375.027 299.192 214.16 182.57 133.727 193.359C133.727 193.359 487.943 204.919 619.162 378.31" stroke="#479FFF" stroke-width="2" stroke-miterlimit="10"/>
<path d="M133.727 200.809C137.856 200.809 141.203 197.473 141.203 193.359C141.203 189.245 137.856 185.91 133.727 185.91C129.598 185.91 126.251 189.245 126.251 193.359C126.251 197.473 129.598 200.809 133.727 200.809Z" fill="#479FFF"/>
<path d="M201.27 360.072C205.399 360.072 208.747 356.736 208.747 352.622C208.747 348.508 205.399 345.173 201.27 345.173C197.141 345.173 193.794 348.508 193.794 352.622C193.794 356.736 197.141 360.072 201.27 360.072Z" fill="#479FFF"/>
<path d="M487.685 199.781C491.814 199.781 495.161 196.446 495.161 192.332C495.161 188.218 491.814 184.882 487.685 184.882C483.556 184.882 480.209 188.218 480.209 192.332C480.209 196.446 483.556 199.781 487.685 199.781Z" fill="#479FFF"/>
<path d="M619.162 385.759C623.291 385.759 626.639 382.424 626.639 378.31C626.639 374.196 623.291 370.86 619.162 370.86C615.033 370.86 611.686 374.196 611.686 378.31C611.686 382.424 615.033 385.759 619.162 385.759Z" fill="#479FFF"/>
<path d="M375.027 306.641C379.156 306.641 382.503 303.306 382.503 299.192C382.503 295.078 379.156 291.743 375.027 291.743C370.898 291.743 367.551 295.078 367.551 299.192C367.551 303.306 370.898 306.641 375.027 306.641Z" fill="#479FFF"/>
</g>
<defs>
<clipPath id="clip0_1_583">
<rect width="735" height="544" fill="white"/>
</clipPath>
</defs>
</svg>
