<svg width="28" height="21" viewBox="0 0 28 21" fill="none" xmlns="http://www.w3.org/2000/svg">
<path d="M27.1802 6.93438C27.3912 6.76484 27.7051 6.92344 27.7051 7.19141V18.375C27.7051 19.8242 26.5417 21 25.1077 21H2.59735C1.1634 21 0 19.8242 0 18.375V7.19688C0 6.92344 0.308435 6.77031 0.524881 6.93984C1.73698 7.89141 3.34409 9.1 8.86346 13.1523C10.0052 13.9945 11.9316 15.7664 13.8525 15.7555C15.7843 15.7719 17.7486 13.9617 18.847 13.1523C24.3664 9.1 25.9681 7.88594 27.1802 6.93438ZM13.8525 14C15.1079 14.0219 16.9152 12.4031 17.8243 11.7359C25.0049 6.46953 25.5514 6.01016 27.2072 4.69766C27.5211 4.45156 27.7051 4.06875 27.7051 3.66406V2.625C27.7051 1.17578 26.5417 0 25.1077 0H2.59735C1.1634 0 0 1.17578 0 2.625V3.66406C0 4.06875 0.183979 4.44609 0.497825 4.69766C2.15364 6.00469 2.70016 6.46953 9.88075 11.7359C10.7898 12.4031 12.5971 14.0219 13.8525 14Z" fill="#001D3D"/>
</svg>
