<svg width="24" height="27" viewBox="0 0 24 27" fill="none" xmlns="http://www.w3.org/2000/svg">
<path d="M12 13.5C15.7875 13.5 18.8571 10.4783 18.8571 6.75C18.8571 3.02168 15.7875 0 12 0C8.2125 0 5.14286 3.02168 5.14286 6.75C5.14286 10.4783 8.2125 13.5 12 13.5ZM16.8 15.1875H15.9054C14.7161 15.7254 13.3929 16.0312 12 16.0312C10.6071 16.0312 9.28929 15.7254 8.09464 15.1875H7.2C3.225 15.1875 0 18.3621 0 22.275V24.4688C0 25.8662 1.15179 27 2.57143 27H21.4286C22.8482 27 24 25.8662 24 24.4688V22.275C24 18.3621 20.775 15.1875 16.8 15.1875Z" fill="#001D3D"/>
</svg>
